<svg width="84" height="84" viewBox="0 0 84 84" fill="none" xmlns="http://www.w3.org/2000/svg">
<rect x="6" y="6" width="72" height="72" rx="36" fill="url(#paint0_radial)" fill-opacity="0.1"/>
<rect width="84" height="84" rx="35" fill="url(#paint1_radial)" fill-opacity="0.1"/>
<rect x="12" y="12" width="60" height="60" rx="30" fill="url(#paint2_radial)"/>
<path d="M44.3525 32.5C48.0535 32.911 50.9775 35.831 51.3925 39.532" stroke="white" stroke-width="1.5" stroke-linecap="round" stroke-linejoin="round"/>
<path d="M44.3525 36.043C46.1235 36.387 47.5075 37.772 47.8525 39.543" stroke="white" stroke-width="1.5" stroke-linecap="round" stroke-linejoin="round"/>
<path fill-rule="evenodd" clip-rule="evenodd" d="M41.0315 42.4724C45.0205 46.4604 45.9254 41.8467 48.4653 44.3848C50.9138 46.8328 52.3222 47.3232 49.2188 50.4247C48.8302 50.737 46.3613 54.4943 37.6845 45.8197C29.0066 37.144 32.7616 34.6724 33.0739 34.2839C36.1838 31.1738 36.6668 32.5894 39.1154 35.0373C41.6541 37.5765 37.0425 38.4844 41.0315 42.4724Z" stroke="white" stroke-width="1.5" stroke-linecap="round" stroke-linejoin="round"/>
<defs>
<radialGradient id="paint0_radial" cx="0" cy="0" r="1" gradientUnits="userSpaceOnUse" gradientTransform="translate(6 42) rotate(90) scale(36)">
<stop stop-color="#30FD1F"/>
<stop offset="1" stop-color="#40C534"/>
</radialGradient>
<radialGradient id="paint1_radial" cx="0" cy="0" r="1" gradientUnits="userSpaceOnUse" gradientTransform="translate(0 42) rotate(90) scale(42)">
<stop stop-color="#30FD1F"/>
<stop offset="1" stop-color="#40C534"/>
</radialGradient>
<radialGradient id="paint2_radial" cx="0" cy="0" r="1" gradientUnits="userSpaceOnUse" gradientTransform="translate(12 42) rotate(90) scale(30)">
<stop stop-color="#30FD1F"/>
<stop offset="1" stop-color="#40C534"/>
</radialGradient>
</defs>
</svg>
