<svg width="30" height="30" viewBox="0 0 30 30" fill="none" xmlns="http://www.w3.org/2000/svg">
<path fill-rule="evenodd" clip-rule="evenodd" d="M23.3333 15.6667L23.3333 13.5L16.5 13.5L16.5 7.27141e-07L29.9997 1.90732e-06L30 15.6667C30 20.8285 28.5058 25.1019 25.5593 27.5C23.521 29.1589 21.0503 30 18 30L18 22.8947C19.6558 22.8947 23.3333 22.2319 23.3333 15.6667ZM6.83333 15.6667L6.83333 13.5L-4.64873e-07 13.5L7.15334e-07 -7.15335e-07L13.5 4.64873e-07L13.5 15.6667C13.5 20.8285 12.1725 25.1019 9.22594 27.5C7.18765 29.1589 4.55028 30 1.5 30L1.5 22.8947C3.15583 22.8947 6.83333 22.2319 6.83333 15.6667Z" fill="#00A5EF"/>
</svg>
