<svg width="32" height="34" viewBox="0 0 32 34" fill="none" xmlns="http://www.w3.org/2000/svg">
<path d="M31.6218 19.139C31.3797 18.9497 31.1844 18.7105 31.0498 18.4389C30.9153 18.1674 30.845 17.8702 30.8441 17.569C30.8432 17.2678 30.9116 16.9703 31.0445 16.6979C31.1773 16.4256 31.3712 16.1853 31.6121 15.9945H4.49933C4.393 15.9948 4.28812 15.9708 4.19321 15.9244L7.32855 12.8922H24.0058L20.6223 9.63231H10.6975L17.0777 3.45092C17.2065 3.32791 17.3802 3.25894 17.5611 3.25894C17.742 3.25894 17.9157 3.32791 18.0444 3.45092L21.589 6.86822C21.5774 6.78137 21.5715 6.69389 21.5713 6.60631C21.5713 6.0688 21.792 5.5533 22.1848 5.17323C22.5776 4.79315 23.1103 4.57962 23.6658 4.57962C23.7863 4.57915 23.9065 4.58906 24.0251 4.60925L20.4354 1.14517C19.6744 0.411177 18.6437 -0.000976562 17.5691 -0.000976562C16.4946 -0.000976562 15.4639 0.411177 14.7029 1.14517L5.93327 9.63231L1.18515 14.2267C0.887062 14.514 0.637507 14.8449 0.445624 15.2073C0.0543248 15.9463 -0.0848849 16.7864 0.0479818 17.6068C0.180849 18.4272 0.578958 19.1857 1.18515 19.7735L6.2829 24.7124C6.82239 25.1377 7.46609 25.4212 8.15185 25.5356C8.37748 25.5732 8.60604 25.592 8.83499 25.5917H23.1744L18.0525 30.5555C17.9891 30.617 17.9137 30.6657 17.8308 30.699C17.7478 30.7323 17.6589 30.7494 17.5691 30.7494C17.4794 30.7494 17.3905 30.7323 17.3075 30.699C17.2246 30.6657 17.1492 30.617 17.0858 30.5555L15.1443 28.6691H14.8801C14.8801 29.2066 14.6594 29.7221 14.2666 30.1022C13.8738 30.4823 13.3411 30.6958 12.7856 30.6958C12.6689 30.6962 12.5524 30.6863 12.4376 30.6662L14.7013 32.8566C15.4623 33.5906 16.493 34.0027 17.5675 34.0027C18.6421 34.0027 19.6728 33.5906 20.4338 32.8566L31.3076 22.335H8.84144C8.72102 22.3347 8.6028 22.3037 8.4987 22.2452C8.3946 22.1866 8.30831 22.1025 8.24852 22.0013L5.41447 19.2575H30.6406C30.9714 19.2565 31.3008 19.2167 31.6218 19.139Z" fill="#00A5EF"/>
</svg>
