<svg width="22" height="19" viewBox="0 0 22 19" fill="none" xmlns="http://www.w3.org/2000/svg">
<path d="M0.332277 9.2534C2.58294 8.02348 5.09529 6.99693 7.4427 5.96515C11.4812 4.27517 15.5357 2.61449 19.6311 1.06841C20.4279 0.804993 21.8596 0.547415 22 1.7189C21.9231 3.3772 21.6069 5.02578 21.39 6.67437C20.8395 10.2998 20.2031 13.9127 19.5826 17.5262C19.3688 18.7299 17.8491 19.3529 16.8766 18.5826C14.5396 17.0166 12.1847 15.4656 9.87754 13.8632C9.12178 13.1014 9.82261 12.0072 10.4976 11.4632C12.4224 9.58123 14.4637 7.9823 16.2879 6.00311C16.78 4.82424 15.326 5.81775 14.8464 6.1222C12.2114 7.92375 9.64078 9.8353 6.86258 11.4186C5.44348 12.1936 3.78949 11.5313 2.37103 11.0989C1.09923 10.5765 -0.764466 10.0501 0.332148 9.25356L0.332277 9.2534Z" fill="white"/>
</svg>
