<svg width="24" height="25" viewBox="0 0 24 25" fill="none" xmlns="http://www.w3.org/2000/svg">
<path d="M20.3666 8.21613C20.283 7.88833 20.0454 7.64083 19.7737 7.56493C19.293 7.42963 16.95 7.12163 12 7.12163C7.05 7.12163 4.7092 7.42963 4.2241 7.56493C3.9557 7.63973 3.7181 7.88723 3.6334 8.21613C3.5135 8.68253 3.2 10.6372 3.2 13.7216C3.2 16.806 3.5135 18.7596 3.6334 19.2282C3.717 19.5549 3.9546 19.8024 4.2252 19.8772C4.7092 20.0136 7.05 20.3216 12 20.3216C16.95 20.3216 19.2919 20.0136 19.7759 19.8783C20.0443 19.8035 20.2819 19.556 20.3666 19.2271C20.4865 18.7607 20.8 16.8016 20.8 13.7216C20.8 10.6416 20.4865 8.68363 20.3666 8.21613ZM22.4973 7.66943C23 9.62963 23 13.7216 23 13.7216C23 13.7216 23 17.8136 22.4973 19.7738C22.2179 20.8573 21.4006 21.7098 20.3655 21.998C18.4856 22.5216 12 22.5216 12 22.5216C12 22.5216 5.5177 22.5216 3.6345 21.998C2.595 21.7054 1.7788 20.854 1.5027 19.7738C1 17.8136 1 13.7216 1 13.7216C1 13.7216 1 9.62963 1.5027 7.66943C1.7821 6.58593 2.5994 5.73343 3.6345 5.44523C5.5177 4.92163 12 4.92163 12 4.92163C12 4.92163 18.4856 4.92163 20.3655 5.44523C21.405 5.73783 22.2212 6.58923 22.4973 7.66943ZM9.8 17.5716V9.87163L16.4 13.7216L9.8 17.5716Z" fill="white"/>
</svg>
