<svg width="129" height="34" viewBox="0 0 129 34" fill="none" xmlns="http://www.w3.org/2000/svg">
<g clip-path="url(#clip0_4216_1008)">
<path d="M31.6218 19.1391C31.3797 18.9498 31.1844 18.7106 31.0498 18.4391C30.9153 18.1675 30.845 17.8703 30.8441 17.5691C30.8432 17.268 30.9116 16.9704 31.0445 16.698C31.1773 16.4257 31.3712 16.1854 31.6121 15.9947H4.49933C4.393 15.9949 4.28812 15.9709 4.19321 15.9245L7.32855 12.8923H24.0058L20.6223 9.63243H10.6975L17.0777 3.45104C17.2065 3.32803 17.3802 3.25906 17.5611 3.25906C17.742 3.25906 17.9157 3.32803 18.0444 3.45104L21.589 6.86834C21.5774 6.78149 21.5715 6.69401 21.5713 6.60643C21.5713 6.06892 21.792 5.55343 22.1848 5.17335C22.5776 4.79327 23.1103 4.57975 23.6658 4.57975C23.7863 4.57927 23.9065 4.58918 24.0251 4.60937L20.4354 1.14529C19.6744 0.411299 18.6437 -0.000854492 17.5691 -0.000854492C16.4946 -0.000854492 15.4639 0.411299 14.7029 1.14529L5.93327 9.63243L1.18515 14.2268C0.887062 14.5141 0.637507 14.845 0.445624 15.2074C0.0543248 15.9464 -0.0848849 16.7865 0.0479818 17.6069C0.180849 18.4273 0.578958 19.1858 1.18515 19.7737L6.2829 24.7125C6.82239 25.1378 7.46609 25.4213 8.15185 25.5357C8.37748 25.5733 8.60604 25.5921 8.83499 25.5918H23.1744L18.0525 30.5556C17.9891 30.6171 17.9137 30.6659 17.8308 30.6991C17.7478 30.7324 17.6589 30.7495 17.5691 30.7495C17.4794 30.7495 17.3905 30.7324 17.3075 30.6991C17.2246 30.6659 17.1492 30.6171 17.0858 30.5556L15.1443 28.6692H14.8801C14.8801 29.2068 14.6594 29.7223 14.2666 30.1023C13.8738 30.4824 13.3411 30.6959 12.7856 30.6959C12.6689 30.6963 12.5524 30.6864 12.4376 30.6663L14.7013 32.8567C15.4623 33.5907 16.493 34.0028 17.5675 34.0028C18.6421 34.0028 19.6728 33.5907 20.4338 32.8567L31.3076 22.3351H8.84144C8.72102 22.3348 8.6028 22.3038 8.4987 22.2453C8.3946 22.1867 8.30831 22.1026 8.24852 22.0015L5.41447 19.2576H30.6406C30.9714 19.2566 31.3008 19.2168 31.6218 19.1391Z" fill="#00A5EF"/>
<path d="M33.8345 16.3397C33.7426 16.2248 33.6378 16.1202 33.5219 16.0279C33.1485 15.7342 32.6819 15.5739 32.2007 15.5739C31.7195 15.5739 31.253 15.7342 30.8796 16.0279C30.6622 16.1996 30.4825 16.4116 30.3511 16.6515C30.1663 16.9906 30.0847 17.3735 30.1158 17.7557C30.1469 18.1379 30.2894 18.5037 30.5267 18.8107C30.6311 18.9457 30.7529 19.0673 30.8892 19.1724C30.9182 19.1973 30.9505 19.2191 30.9811 19.241L31.0536 19.2893C31.4695 19.5451 31.9653 19.6508 32.4539 19.5877C32.9424 19.5247 33.3923 19.297 33.7244 18.9447C34.0565 18.5924 34.2497 18.1381 34.2698 17.6616C34.2899 17.1851 34.1358 16.717 33.8345 16.3397ZM32.1991 18.9011C31.933 18.9011 31.6729 18.8248 31.4517 18.6817C31.2305 18.5387 31.058 18.3354 30.9562 18.0975C30.8544 17.8596 30.8277 17.5979 30.8796 17.3454C30.9316 17.0929 31.0597 16.8609 31.2478 16.6789C31.436 16.4968 31.6757 16.3728 31.9367 16.3226C32.1976 16.2724 32.4681 16.2982 32.714 16.3967C32.9598 16.4952 33.1699 16.6621 33.3177 16.8761C33.4655 17.0902 33.5444 17.3419 33.5444 17.5994C33.5444 17.9446 33.4027 18.2757 33.1504 18.5198C32.8981 18.764 32.5559 18.9011 32.1991 18.9011Z" fill="#00A5EF"/>
<path d="M25.6966 6.23597C25.622 5.82613 25.4189 5.44842 25.1148 5.15417C24.8107 4.85991 24.4203 4.66337 23.9968 4.59124C23.8782 4.57053 23.758 4.5601 23.6375 4.56006C23.082 4.56006 22.5492 4.77358 22.1564 5.15366C21.7636 5.53374 21.543 6.04923 21.543 6.58674C21.5431 6.67432 21.5491 6.7618 21.5607 6.84865C21.5607 6.90946 21.58 6.9687 21.5929 7.02638C21.6882 7.43039 21.9091 7.79644 22.226 8.07519C22.5429 8.35394 22.9405 8.532 23.3652 8.58537C23.4554 8.59791 23.5464 8.60416 23.6375 8.60408C23.9125 8.60408 24.1849 8.55165 24.439 8.4498C24.6931 8.34795 24.924 8.19867 25.1185 8.01047C25.313 7.82228 25.4673 7.59886 25.5726 7.35297C25.6778 7.10708 25.732 6.84354 25.732 6.57739C25.7313 6.46276 25.7194 6.34845 25.6966 6.23597ZM23.6375 7.88071C23.3718 7.8804 23.1122 7.80388 22.8914 7.66083C22.6706 7.51777 22.4987 7.3146 22.3972 7.07699C22.2958 6.83939 22.2694 6.57801 22.3214 6.3259C22.3734 6.07379 22.5015 5.84226 22.6895 5.66058C22.8775 5.4789 23.1169 5.35522 23.3775 5.30518C23.6382 5.25514 23.9083 5.28098 24.1537 5.37943C24.3991 5.47789 24.6089 5.64454 24.7565 5.85832C24.904 6.0721 24.9828 6.32342 24.9828 6.58051C24.983 6.75144 24.9484 6.92073 24.8808 7.07868C24.8133 7.23662 24.7141 7.3801 24.5892 7.5009C24.4642 7.62169 24.3158 7.71742 24.1525 7.7826C23.9891 7.84778 23.8141 7.88112 23.6375 7.88071Z" fill="#00A5EF"/>
<path d="M15.1323 28.5295C15.0699 28.0921 14.8617 27.6864 14.5391 27.374C14.2166 27.0617 13.7975 26.8598 13.3455 26.7991C13.2511 26.7857 13.1557 26.7795 13.0603 26.7804C12.5425 26.7904 12.0468 26.9858 11.6691 27.3287C11.2914 27.6717 11.0584 28.1379 11.0151 28.6374C10.9719 29.1368 11.1214 29.634 11.4348 30.033C11.7483 30.4321 12.2034 30.7045 12.7123 30.7979C12.8272 30.8175 12.9437 30.8269 13.0603 30.8259C13.6158 30.8259 14.1486 30.6124 14.5414 30.2323C14.9342 29.8522 15.1548 29.3368 15.1548 28.7992C15.1545 28.7089 15.147 28.6187 15.1323 28.5295ZM13.0619 30.1041C12.7958 30.1044 12.5355 30.0283 12.3141 29.8855C12.0926 29.7426 11.9199 29.5394 11.8179 29.3016C11.7158 29.0638 11.6889 28.802 11.7406 28.5494C11.7924 28.2967 11.9204 28.0646 12.1085 27.8824C12.2965 27.7002 12.5363 27.5761 12.7973 27.5257C13.0583 27.4754 13.3289 27.5011 13.5748 27.5995C13.8207 27.698 14.0309 27.8649 14.1788 28.079C14.3267 28.2931 14.4056 28.5448 14.4056 28.8024C14.4063 28.9736 14.372 29.1432 14.3048 29.3016C14.2376 29.46 14.1387 29.604 14.0139 29.7253C13.8891 29.8467 13.7407 29.943 13.5774 30.0088C13.414 30.0746 13.2389 30.1086 13.0619 30.1088V30.1041Z" fill="#00A5EF"/>
<path d="M47.8982 24.0474H54.0706V26.785H44.1699V7.15735H53.8128V9.89493H47.8982V15.3374H52.8799V18.1061H47.8982V24.0474Z" fill="white"/>
<path d="M62.4598 11.5116H66.1236V26.7897H62.5243V25.2556C62.2665 26.2721 61.5055 26.7803 60.2412 26.7803H59.2455C57.0586 26.7803 55.9657 25.7535 55.9668 23.6998V11.5116H59.5984V23.204C59.5984 23.5356 59.6628 23.7585 59.7917 23.8728C59.9206 23.9866 60.1558 24.0443 60.499 24.0443H61.4657C62.1306 24.0443 62.463 23.7024 62.463 23.0185L62.4598 11.5116Z" fill="white"/>
<path d="M75.285 11.4491H75.8634V14.4985H74.5149C73.1647 14.4985 72.4896 15.2448 72.4896 16.7372V26.7849H68.8564V11.5068H72.4574V13.4711C72.6126 12.8891 72.9627 12.3732 73.4531 12.0041C73.9801 11.6217 74.6267 11.4258 75.285 11.4491Z" fill="white"/>
<path d="M80.6859 11.5116H84.3191C86.5887 11.5116 87.7246 12.5385 87.7267 14.5922V23.7045C87.7267 25.7571 86.5909 26.784 84.3191 26.785H80.6859C78.3927 26.785 77.2461 25.7582 77.2461 23.7045V14.5922C77.2461 12.5395 78.3927 11.5126 80.6859 11.5116ZM84.158 23.3007V14.9959C84.158 14.6644 84.0936 14.4415 83.9647 14.3271C83.8358 14.2133 83.5893 14.1556 83.2251 14.1556H81.7461C81.382 14.1556 81.1355 14.2133 81.0082 14.3271C80.8809 14.4409 80.8148 14.6639 80.8148 14.9959V23.3007C80.8148 23.6322 80.8793 23.8552 81.0082 23.9695C81.1355 24.0833 81.382 24.141 81.7461 24.141H83.2251C83.5893 24.141 83.8358 24.0833 83.9647 23.9695C84.0936 23.8557 84.158 23.6327 84.158 23.3007Z" fill="white"/>
<path d="M96.0513 23.4254V21.2786C96.0513 20.9481 95.9869 20.7236 95.858 20.6098C95.7291 20.496 95.4826 20.4383 95.1184 20.4383H93.3832C91.0889 20.4383 89.9423 19.4224 89.9434 17.3905V14.5843C89.9434 12.5317 91.1115 11.5048 93.4477 11.5038H95.9869C98.3027 11.5038 99.46 12.5306 99.4589 14.5843V16.0139H95.9546V14.8712C95.9546 14.5397 95.8902 14.3167 95.7613 14.2024C95.634 14.0886 95.3972 14.0309 95.054 14.0309H94.4095C94.0454 14.0309 93.7989 14.0886 93.6716 14.2024C93.5443 14.3162 93.4783 14.5391 93.4783 14.8712V17.1115C93.4783 17.443 93.5427 17.6659 93.6716 17.7803C93.7989 17.8941 94.0454 17.9502 94.4095 17.9502H96.1464C98.46 17.9502 99.6174 18.9667 99.6184 20.9996V23.7044C99.6184 25.7571 98.4503 26.784 96.1141 26.785H93.5121C91.1759 26.785 90.0078 25.7581 90.0078 23.7044V22.3013H93.5766V23.4207C93.5766 23.7528 93.641 23.9757 93.7683 24.0895C93.8956 24.2033 94.1324 24.261 94.4756 24.261H95.1201C95.4842 24.261 95.7307 24.2033 95.8596 24.0895C95.9885 23.9757 96.0513 23.7574 96.0513 23.4254Z" fill="white"/>
<path d="M105.245 11.5116H108.878C111.147 11.5116 112.283 12.5385 112.284 14.5922V23.7045C112.284 25.7571 111.148 26.784 108.878 26.785H105.245C102.951 26.785 101.805 25.7582 101.805 23.7045V14.5922C101.805 12.5395 102.951 11.5126 105.245 11.5116ZM108.717 23.3007V14.9959C108.717 14.6644 108.652 14.4415 108.523 14.3271C108.394 14.2133 108.148 14.1556 107.784 14.1556H106.305C105.941 14.1556 105.694 14.2133 105.567 14.3271C105.439 14.4409 105.373 14.6639 105.373 14.9959V23.3007C105.373 23.6322 105.438 23.8552 105.567 23.9695C105.694 24.0833 105.941 24.141 106.305 24.141H107.787C108.151 24.141 108.398 24.0833 108.526 23.9695C108.655 23.8557 108.717 23.6327 108.717 23.3007Z" fill="white"/>
<path d="M121.321 8.74435H119.871C119.528 8.74435 119.293 8.80048 119.164 8.91428C119.035 9.02809 118.97 9.25258 118.97 9.58309V11.5116H121.321V14.2491H118.97V26.785H115.339V14.2491H113.728V11.5116H115.339V9.05459C115.339 7.00088 116.496 5.97455 118.811 5.97559H121.321V8.74435Z" fill="white"/>
<path d="M129 14.2491H126.846V23.1135C126.846 23.4451 126.91 23.668 127.039 23.7823C127.168 23.8977 127.413 23.9538 127.779 23.9538H128.968V26.7849H126.712C124.377 26.7849 123.21 25.7581 123.21 23.7044V14.2491H121.644V11.5115H123.219V8.77551H126.851V11.5115H129.005L129 14.2491Z" fill="white"/>
</g>
<defs>
<clipPath id="clip0_4216_1008">
<rect width="129" height="34" fill="white"/>
</clipPath>
</defs>
</svg>
