<svg width="23" height="22" viewBox="0 0 23 22" fill="none" xmlns="http://www.w3.org/2000/svg">
<path fill-rule="evenodd" clip-rule="evenodd" d="M7.79883 0H16.0488C19.8452 0 22.9238 3.07862 22.9238 6.875V15.125C22.9238 18.9214 19.8452 22 16.0488 22H7.79883C4.00245 22 0.923828 18.9214 0.923828 15.125V6.875C0.923828 3.07862 4.00245 0 7.79883 0ZM16.0488 19.9375C18.7026 19.9375 20.8613 17.7787 20.8613 15.125V6.875C20.8613 4.22125 18.7026 2.0625 16.0488 2.0625H7.79883C5.14508 2.0625 2.98633 4.22125 2.98633 6.875V15.125C2.98633 17.7787 5.14508 19.9375 7.79883 19.9375H16.0488Z" fill="white"/>
<path fill-rule="evenodd" clip-rule="evenodd" d="M6.42383 11C6.42383 7.96263 8.88645 5.5 11.9238 5.5C14.9612 5.5 17.4238 7.96263 17.4238 11C17.4238 14.0374 14.9612 16.5 11.9238 16.5C8.88645 16.5 6.42383 14.0374 6.42383 11ZM8.48633 11C8.48633 12.8948 10.0291 14.4375 11.9238 14.4375C13.8186 14.4375 15.3613 12.8948 15.3613 11C15.3613 9.10388 13.8186 7.5625 11.9238 7.5625C10.0291 7.5625 8.48633 9.10388 8.48633 11Z" fill="white"/>
<circle cx="17.8364" cy="5.08761" r="0.732875" fill="white"/>
</svg>
