<svg width="23" height="19" viewBox="0 0 23 19" fill="none" xmlns="http://www.w3.org/2000/svg">
<path d="M1.2561 8.40843C3.50677 7.17851 6.01912 6.15195 8.36653 5.12018C12.405 3.4302 16.4595 1.76952 20.5549 0.223443C21.3517 -0.0399773 22.7834 -0.297556 22.9238 0.873932C22.8469 2.53223 22.5307 4.18081 22.3138 5.8294C21.7633 9.45479 21.127 13.0678 20.5064 16.6812C20.2926 17.8849 18.7729 18.5079 17.8004 17.7377C15.4635 16.1716 13.1085 14.6207 10.8014 13.0183C10.0456 12.2564 10.7464 11.1623 11.4214 10.6182C13.3462 8.73626 15.3875 7.13733 17.2117 5.15814C17.7038 3.97927 16.2498 4.97278 15.7703 5.27723C13.1352 7.07878 10.5646 8.99033 7.78641 10.5737C6.36731 11.3487 4.71332 10.6864 3.29486 10.2539C2.02306 9.73148 0.159362 9.20513 1.25598 8.40859L1.2561 8.40843Z" fill="white"/>
</svg>
