<svg width="25" height="24" viewBox="0 0 25 24" fill="none" xmlns="http://www.w3.org/2000/svg">
<path d="M21.2904 7.2945C21.2068 6.9667 20.9692 6.7192 20.6975 6.6433C20.2168 6.508 17.8738 6.2 12.9238 6.2C7.97383 6.2 5.63303 6.508 5.14793 6.6433C4.87953 6.7181 4.64193 6.9656 4.55723 7.2945C4.43733 7.7609 4.12383 9.7156 4.12383 12.8C4.12383 15.8844 4.43733 17.838 4.55723 18.3066C4.64083 18.6333 4.87843 18.8808 5.14903 18.9556C5.63303 19.092 7.97383 19.4 12.9238 19.4C17.8738 19.4 20.2157 19.092 20.6997 18.9567C20.9681 18.8819 21.2057 18.6344 21.2904 18.3055C21.4103 17.8391 21.7238 15.88 21.7238 12.8C21.7238 9.72 21.4103 7.762 21.2904 7.2945ZM23.4211 6.7478C23.9238 8.708 23.9238 12.8 23.9238 12.8C23.9238 12.8 23.9238 16.892 23.4211 18.8522C23.1417 19.9357 22.3244 20.7882 21.2893 21.0764C19.4094 21.6 12.9238 21.6 12.9238 21.6C12.9238 21.6 6.44153 21.6 4.55833 21.0764C3.51883 20.7838 2.70263 19.9324 2.42653 18.8522C1.92383 16.892 1.92383 12.8 1.92383 12.8C1.92383 12.8 1.92383 8.708 2.42653 6.7478C2.70593 5.6643 3.52323 4.8118 4.55833 4.5236C6.44153 4 12.9238 4 12.9238 4C12.9238 4 19.4094 4 21.2893 4.5236C22.3288 4.8162 23.145 5.6676 23.4211 6.7478ZM10.7238 16.65V8.95L17.3238 12.8L10.7238 16.65Z" fill="white"/>
</svg>
